<?xml version="1.0" standalone="no"?>
<!DOCTYPE svg PUBLIC "-//W3C//DTD SVG 20010904//EN"
 "http://www.w3.org/TR/2001/REC-SVG-20010904/DTD/svg10.dtd">
<svg version="1.0" xmlns="http://www.w3.org/2000/svg"
 width="1280.000000pt" height="640.000000pt" viewBox="0 0 1280.000000 640.000000"
 preserveAspectRatio="xMidYMid meet">
<metadata>
Created by potrace 1.15, written by Peter Selinger 2001-2017
</metadata>
<g transform="translate(0.000000,640.000000) scale(0.100000,-0.100000)"
fill="#000000" stroke="none">
<path d="M8582 5197 c-1 -21 -29 -147 -63 -279 -54 -214 -62 -257 -73 -409
-12 -162 -13 -170 -37 -187 -67 -47 -188 -164 -266 -258 -72 -86 -209 -275
-242 -331 -4 -7 -34 -20 -66 -28 -33 -9 -90 -30 -128 -47 -37 -17 -70 -29 -72
-26 -3 3 -3 24 1 48 l7 42 64 -4 c68 -4 65 5 -5 17 -24 4 -46 13 -48 19 -3 7
4 72 16 146 11 76 20 182 20 248 l0 116 48 44 c41 39 132 111 188 150 40 27
-31 1 -128 -48 l-98 -48 0 29 c0 16 5 29 13 29 8 0 8 3 -2 9 -11 7 -13 25 -9
75 3 36 2 66 -3 66 -5 0 -9 -11 -9 -24 0 -24 -18 -86 -29 -98 -3 -4 -47 0 -96
9 -169 29 -343 -1 -484 -84 -134 -80 -281 -246 -375 -423 -74 -141 -91 -137
-52 12 40 155 40 157 9 102 -61 -110 -88 -154 -95 -154 -7 0 -15 317 -10 373
1 10 -3 15 -8 12 -6 -3 -10 -18 -10 -33 0 -15 -24 -121 -53 -236 l-53 -209
-37 -13 c-21 -8 -37 -9 -37 -3 0 5 9 50 20 100 22 97 22 128 1 57 -7 -24 -34
-77 -59 -119 -43 -72 -49 -78 -116 -110 -73 -35 -168 -99 -223 -152 l-33 -31
0 25 c0 13 7 65 16 114 14 82 32 214 34 241 0 9 95 58 150 77 13 5 13 6 -1 6
-9 1 -42 -8 -75 -18 -32 -11 -59 -19 -60 -18 0 1 3 99 7 217 4 118 8 256 7
305 l0 90 -13 -60 c-7 -33 -19 -73 -25 -90 -49 -123 -135 -393 -144 -455 l-11
-74 -62 -39 -62 -38 -60 12 c-34 6 -61 15 -61 20 0 4 61 165 135 356 116 300
144 383 200 602 36 139 64 255 62 258 -3 2 -10 -10 -15 -27 -6 -17 -65 -117
-130 -223 -65 -106 -123 -199 -127 -207 -5 -8 -73 -183 -150 -388 l-142 -374
-44 -20 c-24 -10 -59 -34 -77 -51 -31 -30 -38 -32 -105 -33 -53 0 -83 -6 -113
-22 -42 -21 -122 -102 -184 -185 -19 -25 -37 -47 -40 -47 -3 0 -1 71 4 157 8
141 11 159 30 175 21 17 21 17 1 12 -20 -5 -20 -2 -13 108 7 118 5 148 -7 78
-4 -23 -24 -83 -44 -133 -37 -90 -38 -92 -97 -125 -32 -18 -76 -45 -97 -59
l-38 -26 -102 28 c-56 16 -106 32 -110 35 -18 16 73 139 188 254 121 122 247
220 343 266 28 14 51 28 52 32 0 9 -156 -40 -214 -68 -27 -13 -51 -22 -53 -20
-7 7 181 177 240 216 32 22 55 40 49 40 -29 0 -183 -76 -263 -131 -85 -57
-238 -207 -331 -324 -44 -55 -133 -158 -197 -229 -64 -70 -139 -157 -168 -191
-51 -62 -53 -63 -89 -55 -19 5 -37 10 -39 12 -6 6 6 48 14 48 4 0 16 7 27 16
18 15 18 15 -3 9 -16 -4 -23 -2 -23 8 0 11 48 250 67 335 9 40 -5 23 -22 -25
-8 -27 -62 -124 -118 -218 l-103 -170 -157 0 c-86 0 -157 1 -157 2 0 2 14 25
30 52 l31 49 57 -13 c88 -20 154 -26 192 -16 42 10 31 15 -73 31 -43 6 -94 17
-113 23 l-34 12 45 54 c87 108 217 209 348 273 45 22 74 37 64 34 -63 -20 -63
-13 -1 23 39 22 90 47 113 57 23 9 40 18 38 20 -8 8 -179 -36 -246 -63 -131
-52 -293 -156 -438 -282 l-82 -71 -53 10 c-104 20 -204 -13 -266 -87 -30 -35
-63 -57 -167 -107 -71 -35 -156 -73 -187 -85 -71 -25 -200 -90 -251 -125 -22
-15 -37 -22 -35 -17 6 18 183 226 263 310 l80 83 50 -5 c32 -3 43 -2 30 3 -11
5 -30 9 -42 9 -13 1 -23 4 -22 9 1 14 194 182 284 248 49 36 139 90 200 120
117 59 111 62 -44 23 -159 -40 -376 -167 -548 -321 -41 -37 -45 -38 -117 -38
-109 0 -219 -25 -316 -70 -47 -22 -74 -31 -60 -21 50 40 217 120 300 145 47
14 73 25 58 25 -56 2 -287 -51 -368 -84 -46 -19 -86 -33 -87 -31 -2 2 8 56 21
122 14 65 23 120 21 123 -3 2 -5 -2 -6 -10 0 -8 -4 -6 -9 6 -7 18 -8 17 -15
-10 -8 -31 -165 -315 -175 -315 -3 0 -11 4 -18 9 -11 7 -11 42 2 201 15 187
16 246 1 159 -4 -23 -39 -113 -77 -199 -66 -152 -71 -158 -110 -176 -22 -10
-70 -49 -106 -86 -37 -37 -69 -68 -72 -68 -4 0 -1 35 6 78 7 42 13 83 13 91 1
10 13 12 54 8 l52 -6 -48 15 c-37 12 -47 20 -47 36 0 12 31 233 69 492 69 466
69 474 74 731 3 143 2 242 -2 220 -4 -22 -40 -134 -80 -250 -40 -115 -77 -226
-81 -245 -5 -19 -37 -239 -71 -488 l-63 -452 -61 6 c-74 7 -199 -15 -285 -50
-35 -14 -65 -24 -66 -23 -1 1 2 25 6 52 5 28 11 136 15 240 3 105 7 226 9 270
l4 80 -13 -50 c-7 -27 -43 -137 -80 -244 -55 -159 -70 -219 -86 -329 l-19
-134 -69 -73 c-38 -40 -92 -106 -120 -146 -31 -44 -51 -65 -51 -53 0 10 14
188 30 394 28 347 29 396 23 665 -4 160 -10 277 -14 260 -3 -16 -34 -142 -68
-280 l-61 -250 -40 -570 -41 -570 -49 -135 c-84 -235 -170 -562 -216 -824 -11
-58 -23 -100 -31 -103 -9 -4 -13 -28 -13 -82 0 -42 -9 -146 -20 -231 -11 -85
-23 -203 -27 -262 -6 -107 -6 -108 16 -108 12 0 30 -4 39 -9 9 -4 38 -11 64
-14 43 -6 48 -5 48 13 0 16 7 20 30 20 17 0 30 -4 30 -10 0 -11 64 -30 103
-30 21 0 27 5 27 21 0 21 3 21 93 16 105 -7 121 -10 160 -26 36 -14 34 -15 40
9 5 18 14 20 81 20 52 0 92 -6 128 -20 44 -17 55 -18 62 -7 7 11 18 12 64 1
51 -12 54 -12 59 7 5 19 12 20 122 16 64 -2 134 -8 156 -14 22 -6 61 -14 88
-18 43 -6 47 -4 47 14 0 20 6 21 93 21 51 0 97 -4 103 -9 16 -15 94 -30 100
-19 3 5 13 6 23 3 9 -4 63 -9 119 -11 97 -3 104 -2 109 16 5 19 14 20 153 20
102 0 158 -4 181 -14 66 -26 87 -28 94 -6 6 19 15 20 224 20 189 0 225 -3 274
-19 40 -14 57 -16 60 -8 3 9 14 9 48 0 41 -11 45 -10 60 9 15 20 23 21 104 14
49 -3 93 -10 99 -15 6 -4 30 -11 53 -15 34 -5 44 -3 52 11 9 17 12 17 57 0 46
-17 47 -17 61 3 13 19 25 20 164 20 124 0 160 -3 210 -20 57 -19 62 -20 73 -4
10 12 17 14 32 7 10 -6 31 -13 46 -17 21 -5 28 -2 33 14 6 18 15 20 109 20 77
0 118 -5 161 -20 32 -11 59 -20 60 -20 2 0 5 9 8 20 5 19 14 20 295 20 245 0
291 -2 302 -15 14 -17 60 -20 60 -4 0 6 7 3 16 -5 23 -24 54 -20 54 5 0 20 4
21 123 18 74 -3 130 -9 138 -16 8 -6 40 -14 72 -18 54 -7 57 -6 57 14 0 20 4
21 149 21 100 0 172 -5 217 -16 37 -8 102 -17 146 -19 74 -4 78 -3 78 16 0 19
5 20 43 16 23 -3 80 -13 126 -22 60 -11 86 -13 91 -5 5 8 15 8 34 0 35 -13 33
-14 39 11 6 21 9 22 139 17 73 -3 144 -10 158 -15 14 -6 44 -13 68 -17 38 -6
42 -4 42 14 0 16 7 20 34 20 19 0 37 -4 40 -9 3 -5 22 -12 42 -15 19 -4 41 -9
49 -12 7 -3 16 3 20 15 5 18 9 19 38 6 18 -7 51 -16 75 -20 39 -6 42 -5 42 15
0 22 3 22 89 18 49 -2 95 -9 103 -15 7 -6 32 -13 54 -17 37 -5 42 -3 47 15 5
19 10 21 44 15 21 -4 47 -8 58 -9 11 -1 22 -5 25 -8 3 -3 17 -9 33 -13 23 -5
27 -3 27 15 0 22 2 22 106 16 58 -3 111 -10 117 -15 7 -5 31 -12 54 -16 36 -5
44 -3 53 14 11 20 70 30 70 11 0 -5 28 -14 63 -20 81 -14 77 -15 77 10 0 21 3
22 81 16 45 -3 85 -9 88 -15 3 -5 27 -12 54 -15 38 -5 47 -4 47 9 0 10 6 14
18 10 60 -18 107 -24 113 -14 5 8 16 8 38 0 27 -10 33 -8 44 8 15 25 39 25
112 0 32 -11 59 -20 60 -20 2 0 5 9 8 20 6 25 23 25 94 0 56 -20 56 -20 70 0
13 19 26 20 206 20 154 0 205 -4 257 -18 78 -22 129 -21 142 1 8 15 34 17 228
17 176 0 221 -3 227 -14 5 -8 34 -17 71 -21 59 -7 62 -6 62 14 0 12 5 21 10
21 6 0 10 -4 10 -10 0 -10 63 -30 97 -30 13 0 24 8 28 20 8 24 61 28 79 6 6
-8 36 -17 67 -21 51 -6 57 -4 62 14 5 19 13 21 92 21 64 0 90 -4 102 -15 8 -8
27 -15 41 -14 15 0 46 -3 70 -7 38 -6 42 -5 42 15 0 17 5 20 23 16 152 -35
150 -35 162 -18 11 15 16 15 58 0 45 -15 47 -15 57 4 14 26 92 26 162 -1 29
-11 54 -20 54 -20 1 0 4 9 7 20 5 19 14 20 121 20 l116 0 0 297 0 297 42 70
c49 84 196 304 208 311 4 3 28 -19 54 -49 37 -44 119 -106 139 -106 2 0 -28
50 -69 112 l-73 112 40 48 c137 163 224 235 259 213 16 -10 98 -136 180 -275
98 -168 154 -245 203 -281 22 -16 42 -28 44 -26 6 6 -178 339 -227 412 -62 91
-105 131 -214 199 -134 83 -155 79 -290 -65 l-87 -92 -16 24 c-33 47 -113 126
-148 145 -19 10 -33 23 -31 29 3 5 19 54 37 108 22 64 38 97 48 97 10 0 12 3
5 10 -8 8 -8 27 -1 61 l10 50 51 -6 52 -7 34 78 c19 43 37 82 38 86 2 5 -22
-5 -55 -21 -32 -16 -68 -32 -80 -36 -21 -6 -22 -4 -16 27 4 18 21 103 38 188
18 85 31 156 30 158 -2 2 -9 -14 -15 -35 -12 -36 -150 -277 -155 -271 -2 2 3
32 11 68 18 86 17 104 -4 54 -9 -22 -37 -75 -62 -118 -33 -57 -48 -75 -60 -70
-8 4 -50 9 -92 12 -69 4 -78 7 -78 24 0 29 153 175 253 242 48 32 117 71 155
87 91 39 60 36 -73 -7 -116 -37 -225 -86 -287 -128 l-38 -25 0 58 c0 100 10
148 34 160 20 10 20 10 -4 7 -23 -3 -49 -11 -75 -24 -36 -18 23 25 95 69 47
28 76 49 65 45 -95 -27 -187 -60 -222 -80 -24 -14 -43 -21 -43 -17 0 15 176
177 229 211 28 19 49 35 48 37 -8 7 -153 -60 -208 -96 -64 -43 -65 -42 -48 41
8 40 17 59 33 66 17 9 18 11 4 11 -23 1 -23 8 11 181 16 80 28 146 26 148 -2
2 -9 -14 -15 -35 -15 -46 -175 -326 -197 -345 -14 -11 -15 -9 -10 17 4 17 16
84 28 150 21 115 24 122 70 181 132 167 289 275 464 319 74 18 244 24 305 11
19 -5 32 -5 29 -2 -10 10 -198 53 -266 60 -35 4 -99 2 -144 -4 -153 -21 -270
-78 -391 -189 l-69 -64 -67 26 c-80 31 -175 57 -217 58 -16 1 -41 4 -55 8 -22
6 -19 10 40 47 139 87 258 118 433 113 64 -2 114 -3 113 -2 -2 2 -45 13 -97
24 -138 31 -309 32 -409 1 -112 -35 -209 -93 -302 -181 l-38 -35 0 91 0 91 63
50 c34 27 73 55 85 61 13 7 22 14 20 17 -5 4 -97 -30 -138 -51 -26 -13 -28
-13 -34 8 -3 12 -6 63 -7 112 -2 85 -2 87 -9 35 -12 -85 -47 -213 -62 -221
-21 -12 -92 -70 -161 -131 l-64 -58 -58 12 c-67 13 -68 12 58 85 42 24 77 46
77 48 0 9 -174 -51 -246 -84 -44 -21 -104 -41 -133 -45 -63 -8 -166 -46 -239
-87 -29 -16 -57 -27 -62 -24 -6 4 -10 0 -10 -8 0 -8 -12 -23 -27 -33 -16 -10
-52 -40 -82 -68 l-54 -51 7 35 c4 19 9 44 12 55 4 22 -3 8 -42 -82 -12 -29
-44 -78 -71 -110 -94 -113 -225 -317 -299 -465 -14 -27 -34 -45 -77 -66 l-59
-30 7 82 7 81 73 90 c91 112 219 236 308 299 37 26 67 49 67 51 0 8 -146 -57
-204 -90 -136 -76 -321 -250 -450 -422 -33 -45 -62 -80 -64 -78 -8 8 96 274
153 390 89 182 171 303 284 415 181 180 346 247 591 241 36 -1 79 -4 95 -7 69
-14 10 9 -86 32 -101 26 -113 26 -449 27 -378 0 -404 -2 -527 -58 -92 -42
-148 -82 -235 -164 l-70 -66 7 110 c15 212 12 204 77 249 32 22 56 41 54 43
-2 2 -24 -6 -50 -17 -26 -11 -49 -20 -51 -20 -2 0 -1 100 1 223 4 180 -9 677
-14 544z m-937 -777 c4 -6 -1 -34 -11 -63 -14 -43 -36 -70 -134 -167 -65 -64
-157 -170 -209 -240 -51 -69 -102 -131 -114 -138 -15 -8 -41 -11 -77 -7 -61 7
-273 45 -278 50 -7 7 79 145 139 224 169 225 380 339 646 350 17 0 35 -4 38
-9z m1369 -188 c-75 -50 -124 -95 -186 -170 -46 -55 -78 -82 -121 -104 -33
-16 -60 -28 -62 -26 -8 8 110 138 170 188 61 51 207 140 230 140 6 0 -8 -12
-31 -28z m-604 -212 c-14 -169 -20 -212 -38 -245 -26 -49 -26 -35 -2 80 10 49
17 91 16 93 -2 1 -13 -24 -25 -55 -28 -76 -104 -198 -122 -196 -27 3 -164 27
-168 29 -6 5 101 174 180 285 74 104 170 223 174 217 1 -2 -6 -95 -15 -208z
m2143 142 c-17 -66 -18 -67 -58 -52 l-26 10 47 55 c26 31 48 54 50 52 2 -1 -4
-31 -13 -65z m-1434 -24 c-104 -100 -215 -258 -296 -423 -29 -58 -44 -77 -67
-85 -16 -5 -31 -10 -33 -10 -2 0 14 35 36 78 87 172 222 347 344 444 64 50 71
48 16 -4z m1122 -125 c-90 -112 -191 -262 -277 -410 -54 -92 -63 -102 -99
-113 -22 -7 -62 -24 -90 -39 -27 -14 -53 -27 -57 -29 -3 -2 -2 14 3 35 5 21 9
58 9 83 1 94 9 114 96 223 46 58 131 155 189 215 115 120 131 128 252 131 l53
1 -79 -97z m959 86 c27 -6 50 -14 50 -17 -1 -4 -13 -21 -28 -38 -20 -23 -46
-38 -99 -53 -171 -51 -322 -126 -424 -212 l-49 -41 6 64 c3 34 7 77 10 95 6
41 87 151 122 165 107 43 301 61 412 37z m-678 -18 c4 -4 -19 -26 -51 -49 -32
-24 -80 -64 -106 -88 -60 -58 -56 -47 24 66 62 88 65 91 95 84 17 -3 34 -9 38
-13z m-3002 -81 c-5 -30 -14 -94 -20 -141 l-12 -86 -76 -6 c-43 -2 -78 -3 -80
-2 -2 2 15 33 38 70 50 81 151 227 155 223 2 -2 -1 -28 -5 -58z m3616 -72
c-53 -77 -143 -246 -186 -349 -30 -75 -32 -77 -76 -88 -24 -6 -69 -22 -99 -36
l-55 -24 -45 20 c-26 12 -45 27 -45 36 0 26 45 77 104 118 59 41 68 57 17 30
-17 -8 -31 -13 -31 -9 0 15 112 143 162 185 97 81 251 178 285 179 7 0 -7 -28
-31 -62z m-2492 -134 c-23 -43 -56 -106 -71 -140 -15 -35 -31 -64 -36 -64 -14
0 -19 30 -12 76 5 38 19 59 76 125 39 43 74 79 79 79 4 0 -12 -34 -36 -76z
m1768 -41 c-16 -32 -39 -83 -51 -114 -22 -55 -24 -57 -72 -66 -27 -6 -49 -8
-49 -5 0 16 184 242 196 242 3 0 -9 -26 -24 -57z m-4777 37 c21 0 16 -7 -34
-55 -32 -30 -63 -55 -69 -55 -15 0 -15 1 4 52 19 48 41 71 62 63 8 -3 24 -5
37 -5z m1446 -13 l86 -2 -15 -23 c-8 -12 -36 -34 -64 -49 -56 -30 -240 -239
-316 -358 -25 -38 -62 -90 -82 -115 -20 -25 -58 -76 -84 -115 -47 -70 -47 -70
-40 -30 4 22 19 90 33 150 29 119 27 117 96 102 22 -5 17 -1 -17 16 l-47 22
48 140 c60 178 102 274 121 277 8 2 55 -1 105 -5 49 -5 129 -9 176 -10z
m-1297 -230 c-17 -124 -36 -232 -40 -240 -5 -8 -43 -38 -84 -65 -77 -51 -206
-176 -280 -269 -23 -29 -43 -53 -45 -53 -4 0 61 192 94 275 41 101 120 259
132 263 5 2 7 7 5 11 -2 3 17 38 42 76 33 48 56 73 77 80 17 5 32 12 35 16 3
3 14 11 25 18 17 10 14 11 -20 6 l-39 -7 49 54 c55 59 66 68 75 63 4 -2 -8
-105 -26 -228z m641 151 c-5 -41 -22 -81 -71 -164 -35 -60 -64 -102 -64 -93 0
22 49 261 55 267 11 11 80 50 83 47 2 -2 1 -28 -3 -57z m-1681 -10 c-12 -27
-21 -34 -36 -30 -18 4 -16 8 13 38 18 19 34 32 36 30 2 -2 -4 -19 -13 -38z
m-2289 -70 c-50 -51 -90 -93 -90 -94 0 -1 -33 6 -74 15 l-74 18 34 25 c62 47
235 125 284 127 5 1 -31 -40 -80 -91z m5025 77 c0 -16 -17 -19 -46 -8 -16 6
-16 7 2 14 30 12 44 10 44 -6z m-4259 -99 c-43 -44 -83 -76 -99 -79 -15 -3
-28 -4 -29 -3 -1 1 17 27 41 58 30 37 62 64 97 82 29 14 55 24 57 21 3 -2 -28
-38 -67 -79z m1266 73 c35 -6 63 -12 63 -14 0 -1 -51 -53 -113 -116 -62 -63
-152 -167 -200 -231 -53 -71 -105 -129 -132 -148 -25 -17 -45 -29 -45 -26 0 3
32 73 71 156 69 143 73 149 98 144 25 -5 26 -5 4 8 -22 13 -22 13 38 126 l60
112 46 0 c26 0 75 -5 110 -11z m-3102 -21 c-5 -24 -45 -312 -45 -326 0 -5 -57
-7 -127 -5 -105 4 -142 1 -203 -15 -41 -11 -77 -18 -78 -17 -2 2 2 45 9 95
l13 91 61 46 c78 59 203 119 285 137 90 19 91 19 85 -6z m6820 13 c-54 -13
-79 -32 -198 -150 l-118 -116 65 125 c40 77 73 130 88 137 13 8 58 12 108 12
58 -1 75 -3 55 -8z m-3007 -9 c-1 -4 -22 -39 -46 -79 -38 -63 -49 -73 -90 -87
-25 -9 -47 -16 -49 -16 -10 0 89 120 126 153 37 33 68 49 59 29z m2233 -13
l37 -9 -27 -65 c-22 -55 -29 -65 -46 -60 -11 3 -62 8 -112 12 l-93 6 27 49
c45 83 94 98 214 67z m-2721 -29 c0 -12 -12 -26 -32 -36 -18 -9 -61 -36 -95
-60 -35 -24 -63 -41 -63 -37 0 3 30 39 66 79 53 60 71 74 95 74 22 0 29 -5 29
-20z m4051 -30 c-10 -22 -21 -43 -24 -46 -7 -7 -47 5 -47 15 0 6 79 71 86 71
2 0 -5 -18 -15 -40z m-3453 -28 c-7 -18 -16 -32 -21 -32 -5 0 -7 3 -5 8 34 69
47 82 26 24z m-2400 -54 c-34 -46 -69 -89 -78 -95 -23 -19 -120 -66 -125 -61
-9 9 128 139 166 159 22 11 39 22 39 25 0 3 -6 2 -12 -1 -7 -4 3 7 22 24 57
51 54 35 -12 -51z m4892 67 c0 -3 -20 -41 -44 -83 -24 -42 -55 -98 -67 -124
-14 -30 -32 -51 -48 -57 -14 -5 -34 -12 -44 -16 -17 -7 -18 -4 -12 51 4 32 14
69 22 82 7 12 51 52 96 87 76 60 97 73 97 60z m-1675 -57 c-12 -24 -28 -61
-35 -83 -16 -51 -17 -52 -69 -60 l-44 -7 23 32 c23 32 139 160 145 160 2 0 -7
-19 -20 -42z m-3854 -93 c-42 -49 -85 -102 -96 -116 -11 -14 -35 -31 -54 -37
-29 -10 -40 -9 -82 11 -27 12 -49 25 -49 29 0 12 71 102 122 154 l49 51 93 -1
92 -1 -75 -90z m2395 53 c-5 -30 -15 -38 -73 -67 l-67 -33 38 44 c43 49 99 98
105 93 2 -2 1 -19 -3 -37z m3998 -155 c-50 -150 -66 -189 -85 -199 -13 -7 -29
-13 -35 -14 -15 0 42 189 116 386 6 16 15 20 37 17 l28 -5 -61 -185z m-5138
172 c-11 -8 -27 -15 -35 -14 -9 0 -2 7 14 14 39 18 45 18 21 0z m373 -64 c-19
-27 -35 -48 -37 -46 -1 1 3 23 10 48 9 34 18 47 32 49 12 2 23 3 25 1 2 -1
-11 -25 -30 -52z m3507 24 c-4 -19 -32 -70 -63 -113 l-56 -79 -74 30 c-73 30
-75 31 -70 61 l5 31 -11 -27 c-6 -16 -14 -28 -18 -28 -19 0 -18 22 3 64 19 40
29 48 72 62 28 10 86 20 131 24 44 4 82 8 84 9 2 0 0 -15 -3 -34z m-3937 18
c0 -9 -130 -95 -135 -90 -10 9 33 50 74 72 50 26 62 29 61 18z m1801 -9 c0
-15 -22 -43 -45 -58 l-26 -17 17 33 c16 32 31 48 47 48 4 0 7 -3 7 -6z m5001
-79 l-26 -85 -35 -1 c-19 0 -42 -2 -50 -4 -69 -14 -92 -17 -89 -9 51 113 81
145 159 171 70 23 70 22 41 -72z m406 64 l28 -11 -35 -18 c-46 -25 -47 -25
-42 10 5 33 8 35 49 19z m205 -33 c-11 -30 -56 -84 -139 -171 -134 -140 -141
-141 -135 -36 l4 61 76 58 c80 60 191 132 204 132 4 0 0 -20 -10 -44z m-9230
-7 c-6 -27 -14 -35 -36 -37 l-28 -4 33 40 c19 23 35 39 37 37 2 -1 -1 -18 -6
-36z m1382 -11 c-18 -29 -138 -173 -147 -177 -11 -4 21 53 44 77 8 9 15 19 15
22 0 15 40 63 63 75 32 18 34 18 25 3z m5327 -32 c-11 -27 -24 -37 -16 -11 3
8 7 22 10 31 3 9 8 15 11 12 2 -3 0 -17 -5 -32z m693 -3 c-4 -15 -20 -55 -35
-89 -23 -50 -33 -62 -56 -67 -15 -3 -29 -5 -30 -4 -2 3 119 187 123 187 3 0 1
-12 -2 -27z m2457 0 c-20 -67 -105 -260 -123 -278 -19 -20 -19 -20 -14 15 3
19 7 69 10 110 l5 75 -18 -60 c-42 -138 -189 -430 -207 -412 -3 3 24 99 61
214 63 199 68 210 109 248 39 36 160 115 178 115 3 0 3 -12 -1 -27z m-6866 -5
c-3 -13 -14 -70 -24 -127 -15 -85 -23 -108 -42 -122 -13 -10 -28 -19 -33 -19
-5 0 -6 37 -3 83 6 79 6 81 -7 37 -21 -74 -58 -151 -70 -147 -6 2 -35 12 -63
21 -29 10 -53 21 -53 25 0 17 274 271 293 271 4 0 5 -10 2 -22z m-1006 -56
c-11 -34 -25 -62 -31 -62 -5 0 -37 -26 -71 -57 l-61 -58 49 70 c54 78 129 173
132 170 2 -1 -7 -29 -18 -63z m1337 -40 l-44 -88 -46 1 c-25 0 -46 2 -46 4 0
14 161 171 176 171 2 0 -16 -40 -40 -88z m4528 21 c-9 -51 -16 -61 -36 -54
-15 5 -14 11 9 49 14 23 27 42 29 42 3 0 2 -17 -2 -37z m-8172 15 c-7 -7 -39
-22 -71 -33 -58 -21 -59 -21 -96 -3 -20 11 -35 21 -33 24 7 7 111 22 163 23
38 1 46 -2 37 -11z m718 -30 l25 -10 -25 -13 c-37 -19 -109 -39 -116 -32 -4 3
4 22 16 41 23 38 32 39 100 14z m1363 -38 c-31 -38 -55 -60 -68 -59 -15 0 -5
14 44 59 35 33 65 60 68 60 2 0 -18 -27 -44 -60z m3803 28 l36 -32 -69 -27
c-37 -15 -69 -26 -71 -25 -1 2 2 24 7 51 14 73 40 83 97 33z m-6443 -35 c-4
-16 -30 -49 -58 -73 -52 -48 -52 -47 20 67 39 61 54 64 38 6z m522 22 c-26
-22 -55 -33 -55 -21 0 7 64 46 75 45 6 0 -3 -11 -20 -24z m1345 -12 c-11 -16
-42 -58 -67 -95 -44 -66 -63 -82 -63 -55 0 19 27 56 89 120 60 62 75 72 41 30z
m7559 -46 c-18 -23 -36 -46 -41 -51 -4 -6 -8 15 -8 45 l0 55 38 10 c50 12 53
-4 11 -59z m-8116 1 c-27 -35 -81 -108 -120 -163 -39 -55 -83 -111 -98 -125
l-27 -25 6 25 c3 14 12 56 20 93 15 73 37 107 70 107 15 0 17 3 8 9 -10 6 -3
17 30 43 50 41 138 98 151 98 5 0 -13 -28 -40 -62z m5506 -23 l-39 -80 6 55
c4 45 11 60 37 82 17 15 32 26 33 25 2 -1 -15 -38 -37 -82z m-6089 46 c-5 -11
-15 -23 -20 -26 -14 -9 -12 19 2 33 19 19 30 14 18 -7z m8634 -3 c-9 -31 -43
-108 -46 -108 -2 0 -2 24 0 52 2 34 9 58 20 66 24 18 34 15 26 -10z m-9195
-20 c-15 -21 -24 -27 -27 -18 -3 7 5 22 18 32 32 26 34 22 9 -14z m284 16 c3
-3 -31 -43 -76 -89 -91 -91 -175 -201 -255 -333 l-53 -87 7 55 c14 115 172
326 328 437 34 24 40 26 49 17z m5970 -110 c-31 -60 -71 -120 -92 -139 -20
-18 -37 -33 -38 -32 -4 5 36 180 43 187 18 17 128 90 135 90 4 0 -18 -48 -48
-106z m2877 102 c0 -9 -63 -152 -70 -159 -4 -5 -17 -7 -28 -5 -20 3 -19 5 9
68 16 36 40 73 52 82 21 17 37 23 37 14z m-4100 -121 c-34 -103 -114 -265
-130 -265 -3 0 2 57 13 128 l19 127 61 63 c34 34 65 62 69 62 3 0 -11 -52 -32
-115z m2969 102 c-2 -1 -13 -9 -24 -17 -19 -14 -19 -14 -6 3 7 9 18 17 24 17
6 0 8 -1 6 -3z m-589 -39 c0 -30 -15 -52 -29 -44 -8 5 -6 16 4 37 19 35 25 37
25 7z m-3200 2 c0 -5 -5 -10 -11 -10 -5 0 -7 5 -4 10 3 6 8 10 11 10 2 0 4 -4
4 -10z m-1820 -7 c0 -9 -81 -133 -87 -133 -12 0 12 87 30 112 18 25 57 39 57
21z m1560 -56 c-25 -57 -31 -60 -81 -52 -39 7 -41 8 -35 38 3 17 8 33 11 36 6
5 118 30 123 26 1 -1 -7 -23 -18 -48z m3086 -2 c-13 -38 -119 -185 -134 -185
-4 0 18 39 91 157 28 45 53 81 55 79 2 -2 -4 -25 -12 -51z m2480 28 c-10 -10
-19 5 -10 18 6 11 8 11 12 0 2 -7 1 -15 -2 -18z m-5344 -55 c-42 -111 -39
-107 -62 -101 -32 8 -20 53 32 122 48 63 59 55 30 -21z m-2077 2 c-9 -16 -18
-30 -21 -30 -2 0 2 14 11 30 9 17 18 30 21 30 2 0 -2 -13 -11 -30z m-2296 -80
c-7 -48 -24 -87 -65 -157 -30 -51 -77 -138 -104 -194 -40 -81 -50 -96 -50 -72
0 69 23 144 79 258 54 109 138 241 147 232 2 -2 -1 -32 -7 -67z m3655 64 c25
-4 46 -9 45 -13 0 -3 -21 -23 -47 -45 -62 -51 -143 -144 -200 -229 l-45 -67
-18 30 -19 30 55 100 c115 211 113 209 229 194z m-1910 -19 c4 -12 -82 -211
-89 -203 -11 12 19 134 42 172 30 49 38 54 47 31z m7963 -41 c-2 -2 -12 -1
-22 2 -17 7 -17 8 1 21 17 12 19 12 22 -2 2 -9 2 -19 -1 -21z m-1588 -41 c-18
-32 -41 -71 -52 -88 l-19 -30 7 45 c4 35 16 55 48 88 22 23 43 42 45 42 2 0
-11 -26 -29 -57z m-1561 -14 c-10 -46 -68 -151 -68 -123 0 14 72 185 77 181 2
-2 -2 -28 -9 -58z m1244 -41 c-11 -54 -24 -84 -50 -116 -19 -24 -36 -41 -39
-38 -3 3 1 37 8 78 10 58 20 80 47 110 19 21 38 38 42 38 4 0 1 -33 -8 -72z
m3118 51 c0 -17 -33 -69 -44 -69 -19 0 -96 33 -96 41 0 4 15 12 33 18 72 22
107 26 107 10z m-6900 -40 c-7 -11 -14 -18 -17 -15 -8 8 5 36 17 36 7 0 7 -6
0 -21z m5680 6 c0 -17 -2 -18 -24 -9 -23 9 -20 24 4 24 11 0 20 -7 20 -15z
m-502 -13 c-10 -24 -38 -103 -47 -137 -6 -22 -29 -60 -52 -85 -44 -49 -45 -45
-7 58 15 41 24 52 41 52 20 1 21 2 4 14 -16 13 -16 16 0 60 14 37 22 46 41 46
13 0 22 -3 20 -8z m-4904 -34 c-13 -46 -34 -91 -39 -86 -11 11 19 108 32 108
10 0 12 -7 7 -22z m5376 4 c0 -5 -7 -17 -16 -28 -14 -17 -15 -17 -10 -1 3 10
6 23 6 28 0 5 5 9 10 9 6 0 10 -4 10 -8z m-8365 -70 c-38 -78 -100 -266 -125
-377 -19 -85 -29 -108 -66 -156 -24 -31 -66 -90 -94 -130 -27 -40 -50 -69 -50
-66 0 17 52 202 83 292 45 134 91 241 130 307 34 56 138 190 144 185 1 -2 -8
-27 -22 -55z m9517 47 l38 -10 -19 -37 c-10 -20 -28 -68 -40 -107 -15 -50 -33
-83 -62 -115 -41 -45 -41 -45 -36 -15 55 324 47 305 119 284z m-6597 -174
c-34 -93 -45 -92 -15 2 26 77 30 86 37 79 3 -3 -7 -39 -22 -81z m-871 -67
c-19 -38 -30 -48 -49 -48 -14 0 -25 2 -25 4 0 2 14 33 31 70 l31 66 18 -22
c17 -22 17 -24 -6 -70z m-769 20 c-19 -57 -31 -76 -42 -65 -3 4 6 34 22 67 16
33 30 58 33 56 2 -3 -4 -29 -13 -58z m3680 15 c-21 -55 -73 -253 -110 -419
-46 -205 -75 -274 -116 -274 -15 0 -19 5 -15 15 7 19 171 528 198 615 23 75
26 80 40 80 6 0 7 -8 3 -17z m-1364 -46 c-13 -13 -15 1 -4 30 7 17 8 17 11 -1
2 -10 -1 -23 -7 -29z m-2951 -11 c0 -8 -4 -26 -10 -41 -9 -22 -12 -24 -30 -13
-25 16 -25 19 0 46 24 25 40 28 40 8z m4523 -63 c-11 -57 -20 -75 -54 -108
l-40 -40 17 40 c21 52 83 175 88 175 2 0 -3 -30 -11 -67z m-1573 45 c0 -7 -5
-49 -11 -94 -9 -63 -18 -88 -39 -115 -48 -58 -47 -38 7 139 13 45 29 82 34 82
5 0 9 -6 9 -12z m-1590 -28 c11 0 -55 -129 -85 -165 l-24 -30 29 90 c17 50 32
96 35 104 3 7 12 10 21 7 9 -3 19 -6 24 -6z m3715 -67 c-13 -38 -45 -108 -70
-156 -46 -87 -47 -88 -63 -66 -20 28 -12 48 69 185 72 123 100 139 64 37z
m4101 -65 l55 -77 -65 -85 c-71 -93 -167 -234 -210 -308 -26 -45 -31 -48 -68
-48 -34 0 -39 3 -33 18 4 9 52 150 106 312 55 162 102 302 105 310 6 17 20 2
110 -122z m-5751 45 c-4 -27 -28 -97 -55 -158 -26 -60 -60 -144 -76 -185 -32
-85 -32 -85 -40 -77 -5 5 167 466 174 467 2 0 0 -21 -3 -47z m-3503 -48 l27
-30 -18 -80 c-19 -80 -37 -135 -45 -135 -2 0 -23 34 -46 76 l-41 76 41 70 c23
38 45 66 49 61 3 -4 18 -21 33 -38z m7788 -27 c0 -18 -2 -20 -9 -8 -6 8 -7 18
-5 22 9 14 14 9 14 -14z m-32 -84 l23 -46 -68 -124 c-37 -68 -72 -123 -77
-121 -11 4 -11 38 0 162 6 60 11 76 46 122 22 29 43 53 47 53 4 0 17 -21 29
-46z m-9257 -60 c-15 -57 -51 -242 -51 -265 0 -14 -7 -19 -25 -19 -14 0 -25 3
-25 7 0 14 104 322 108 319 2 -2 -1 -21 -7 -42z m1393 -83 l48 -74 -22 -61
c-44 -124 -39 -118 -79 -112 -20 3 -62 8 -94 11 l-59 7 7 36 c8 42 137 284
146 274 3 -4 27 -40 53 -81z m-1699 32 c-4 -10 -23 -61 -41 -113 -30 -84 -34
-89 -28 -46 5 42 60 176 72 176 2 0 1 -8 -3 -17z m4778 -40 c-11 -70 -12 -73
-42 -73 l-29 0 30 55 c31 58 48 65 41 18z m2026 10 c0 -10 -4 -27 -9 -38 -7
-16 -9 -13 -9 18 -1 20 4 37 9 37 6 0 10 -8 9 -17z m1670 -99 c-6 -38 -17 -72
-23 -76 -20 -14 -46 -8 -46 9 0 16 72 144 78 138 2 -1 -2 -34 -9 -71z m-344
-184 c-3 -5 -10 -10 -16 -10 -5 0 -9 5 -9 10 0 6 7 10 16 10 8 0 12 -4 9 -10z"/>
<path d="M12097 3148 c-21 -50 -36 -92 -34 -95 2 -2 18 12 35 31 37 42 59 107
46 135 -7 16 -16 4 -47 -71z"/>
</g>
</svg>
